<?xml version="1.0" standalone="yes"?>
<svg xmlns="http://www.w3.org/2000/svg" width="16" height="16">
<path style="fill:#eff5f9; stroke:none;" d="M0 0L0 16L16 16L16 0L12 2L0 0z"/>
<path style="fill:#c2d4e2; stroke:none;" d="M6 0L6 1L12 2L6 0M1 6L2 6L6 2L1 6M12 2L14 6L15 6L12 2M5 4L6 5L5 4z"/>
<path style="fill:#b4c1cd; stroke:none;" d="M6 4L6 5L10 8L11 8L12 6L6 4z"/>
<path style="fill:#6f8fa8; stroke:none;" d="M5.66667 5.33333L6.33333 5.66667L5.66667 5.33333z"/>
<path style="fill:#425b76; stroke:none;" d="M7 5L7 9L8 9L9 5L7 5z"/>
<path style="fill:#c2d4e2; stroke:none;" d="M6 6L6 9L7 9L6 6z"/>
<path style="fill:#6f8fa8; stroke:none;" d="M8 6L7 10L12 8L12 7L8 6z"/>
<path style="fill:#c2d4e2; stroke:none;" d="M9.33333 6.66667L9.66667 7.33333L9.33333 6.66667z"/>
<path style="fill:#6f8fa8; stroke:none;" d="M10 6L11 7L10 6z"/>
<path style="fill:#c2d4e2; stroke:none;" d="M15 6L15 10L16 10L15 6M0 8L1 9L0 8M11 8L12 9L11 8M1 9L2 13L3 13L1 9z"/>
<path style="fill:#b4c1cd; stroke:none;" d="M6 9L7 10L6 9M8 10L9 11L8 10z"/>
<path style="fill:#c2d4e2; stroke:none;" d="M14 10L11 15L14 10z"/>
<path style="fill:#b4c1cd; stroke:none;" d="M3 13L4 14L3 13z"/>
<path style="fill:#c2d4e2; stroke:none;" d="M4.66667 14.3333L5.33333 14.6667L4.66667 14.3333M6 15L6 16L10 16L6 15z"/>
</svg>
