<?xml version="1.0" standalone="no"?>
<!DOCTYPE svg PUBLIC "-//W3C//DTD SVG 20010904//EN"
 "http://www.w3.org/TR/2001/REC-SVG-20010904/DTD/svg10.dtd">
<svg version="1.0" xmlns="http://www.w3.org/2000/svg"
 width="295.000000pt" height="300.000000pt" viewBox="0 0 295.000000 300.000000"
 preserveAspectRatio="xMidYMid meet">

<g transform="translate(0.000000,300.000000) scale(0.100000,-0.100000)"
fill="#000000" stroke="none">
<path d="M1141 2975 c-197 -43 -381 -145 -539 -298 -89 -86 -142 -158 -192
-257 -32 -65 -64 -108 -134 -181 -126 -132 -203 -269 -254 -451 -14 -51 -17
-101 -16 -263 1 -206 10 -284 46 -390 51 -150 160 -315 263 -401 32 -28 56
-61 81 -113 92 -195 239 -354 414 -449 138 -76 216 -102 390 -133 201 -35 228
-36 382 -3 99 20 144 36 233 81 98 49 128 59 275 89 190 38 255 66 392 169
157 118 325 340 385 509 8 23 28 102 44 176 27 116 30 147 25 225 -3 50 -12
114 -20 143 -13 49 -13 65 6 175 24 146 20 233 -16 389 -56 242 -222 493 -429
649 -110 84 -181 114 -385 164 -133 33 -187 52 -234 80 -81 48 -183 81 -288
94 -117 15 -351 12 -429 -4z m484 -105 c50 -13 92 -25 94 -26 11 -10 -36 -44
-68 -50 -40 -8 -147 -46 -191 -69 -68 -35 -189 -138 -225 -190 -21 -30 -44
-55 -50 -55 -7 0 -34 7 -61 15 -34 10 -95 15 -195 15 -133 0 -156 -3 -250 -30
-142 -41 -145 -41 -118 12 81 159 359 330 640 393 97 22 310 14 424 -15z m336
-177 c123 -112 212 -254 250 -402 36 -141 27 -159 -91 -180 -141 -26 -216 -60
-249 -115 -27 -43 -30 -188 -5 -224 42 -60 175 -82 252 -43 76 39 155 147 168
230 8 47 15 49 89 23 203 -71 438 -362 410 -509 -29 -158 -302 -440 -440 -455
-28 -3 -32 1 -70 78 -22 45 -50 95 -63 112 -31 43 -97 80 -165 93 -48 10 -64
9 -102 -5 -24 -10 -56 -31 -71 -49 -24 -29 -26 -36 -22 -123 3 -90 4 -94 37
-128 39 -41 103 -67 213 -90 120 -25 128 -29 128 -73 -1 -102 -63 -260 -148
-376 -61 -83 -130 -156 -166 -174 -88 -46 -412 63 -547 184 -75 68 -102 134
-60 148 29 9 125 117 150 167 15 31 21 63 21 110 0 56 -4 71 -29 105 -16 22
-46 50 -66 63 -74 46 -186 7 -245 -87 -38 -59 -46 -119 -30 -213 7 -41 13 -91
14 -109 1 -32 -2 -36 -34 -45 -19 -5 -85 -11 -147 -13 -87 -3 -129 0 -196 16
-162 38 -271 101 -309 178 -21 44 -23 61 -23 193 1 120 5 159 23 223 24 86 51
145 88 194 l24 32 100 -51 c152 -77 244 -76 335 4 75 66 84 155 23 224 -42 47
-99 75 -168 81 -69 7 -112 -6 -201 -58 -36 -22 -72 -39 -81 -39 -23 0 -52 44
-86 131 -51 130 -65 207 -60 337 7 203 52 255 289 332 81 27 105 30 215 30 91
0 135 -4 166 -17 24 -9 44 -17 45 -18 2 -1 -4 -42 -12 -91 -20 -122 -19 -161
9 -219 44 -96 135 -153 221 -141 87 14 128 72 128 181 -1 114 -57 223 -138
271 -53 31 -56 46 -15 102 90 125 355 250 531 251 54 1 60 -1 110 -46z m304
-28 c252 -116 498 -440 560 -737 17 -77 20 -218 6 -218 -5 0 -39 35 -75 79
-148 178 -295 291 -398 307 l-38 7 0 71 c-1 143 -47 271 -148 408 -40 55 -72
110 -72 126 0 16 89 -8 165 -43z m-998 -360 c48 -20 71 -41 94 -87 33 -65 18
-175 -26 -192 -29 -11 -44 -6 -79 24 -44 39 -71 107 -62 157 8 50 26 113 32
113 2 0 21 -7 41 -15z m-947 -289 c0 -187 23 -274 119 -441 l40 -70 -54 -93
c-83 -147 -98 -200 -104 -381 l-6 -155 -38 33 c-94 83 -187 388 -187 616 0
148 39 312 107 452 34 70 96 153 114 153 5 0 9 -51 9 -114z m1880 -11 c0 -57
-57 -149 -115 -185 -79 -49 -163 -4 -145 77 15 63 75 106 172 122 86 14 88 14
88 -14z m-1291 -434 c25 -18 31 -29 31 -60 0 -68 -73 -112 -152 -91 -69 19
-148 67 -148 90 0 11 77 60 119 76 48 18 112 12 150 -15z m1927 -365 c-21
-300 -170 -569 -421 -759 -87 -66 -220 -134 -278 -144 -57 -9 -51 10 43 142
102 141 127 208 136 362 l7 101 56 21 c126 46 234 128 361 276 45 52 87 95 92
95 8 0 9 -30 4 -94z m-771 -5 c65 -29 134 -127 135 -190 0 -23 -2 -24 -58 -19
-67 7 -151 40 -181 72 -19 20 -26 50 -22 104 1 16 11 27 34 37 41 18 44 18 92
-4z m-710 -231 c30 -33 32 -119 5 -175 -25 -52 -85 -98 -122 -93 -22 3 -23 7
-26 97 -3 109 8 145 52 172 40 24 68 24 91 -1z m-694 -436 c127 -45 335 -45
505 2 16 4 31 -8 73 -63 29 -37 78 -87 109 -111 70 -53 212 -123 310 -152 40
-12 71 -27 69 -33 -1 -5 -48 -21 -102 -36 -88 -22 -120 -25 -260 -25 -187 1
-258 16 -410 88 -109 51 -166 88 -253 164 -54 46 -152 167 -152 186 0 12 38 5
111 -20z"/>
</g>
</svg>
