<?xml version="1.0" standalone="yes"?>
<svg xmlns="http://www.w3.org/2000/svg" width="32" height="32">
<path style="fill:#f2f8fb; stroke:none;" d="M0 0L0 32L16 32L16 31C-2.64899 29.0775 -2.64895 2.92253 16 1L0 0z"/>
<path style="fill:#abc5de; stroke:none;" d="M15 2L18 2L17 0L15 2z"/>
<path style="fill:#f2f8fb; stroke:none;" d="M17 0L17 1L26 5C20.579 2.47019 14.5909 0.505163 9.04321 4.00926C0.89024 9.15897 0.890245 22.841 9.04321 27.9907C12.6584 30.2742 16.9045 29.9973 21 30L21 31L17 31L17 32L32 32L32 0L17 0z"/>
<path style="fill:#abc5de; stroke:none;" d="M11.3333 1.66667L11.6667 2.33333L11.3333 1.66667z"/>
<path style="fill:#a0afbd; stroke:none;" d="M12 1L12 2L15 2L12 1M18.6667 1.33333L19.3333 1.66667L18.6667 1.33333z"/>
<path style="fill:#abc5de; stroke:none;" d="M20 1L20 3L22 3L20 1M9.33333 2.66667L9.66667 3.33333L9.33333 2.66667z"/>
<path style="fill:#a0afbd; stroke:none;" d="M10 2L11 3L10 2M22 2L22 3L26 5L26 4L22 2z"/>
<path style="fill:#abc5de; stroke:none;" d="M23 2L24 3L23 2M7 3L4 7L7 3z"/>
<path style="fill:#a0afbd; stroke:none;" d="M8 3L9 4L8 3M7 4L8 5L7 4z"/>
<path style="fill:#abc5de; stroke:none;" d="M24 4L25 5L24 4z"/>
<path style="fill:#a0afbd; stroke:none;" d="M6 5L7 6L6 5M26 5L28 7L26 5M5 6L6 7L5 6M4 7L3 10L4 10L4 7z"/>
<path style="fill:#abc5de; stroke:none;" d="M27.6667 7.33333L28.3333 7.66667L27.6667 7.33333M4 8L5 9L4 8z"/>
<path style="fill:#a0afbd; stroke:none;" d="M28 8L29 9L28 8z"/>
<path style="fill:#577ea7; stroke:none;" d="M11 9L11 10L16 10L11 9z"/>
<path style="fill:#a0afbd; stroke:none;" d="M16 9L17 10L16 9z"/>
<path style="fill:#577ea7; stroke:none;" d="M17 9L18 10L17 9z"/>
<path style="fill:#abc5de; stroke:none;" d="M18 9L19 10L18 9z"/>
<path style="fill:#a0afbd; stroke:none;" d="M29.3333 9.66667L29.6667 10.3333L29.3333 9.66667z"/>
<path style="fill:#abc5de; stroke:none;" d="M2.66667 10.3333L3.33333 10.6667L2.66667 10.3333z"/>
<path style="fill:#a0afbd; stroke:none;" d="M10 10L11 11L10 10z"/>
<path style="fill:#07133b; stroke:none;" d="M11 10L11 11L14 11L14 20L15 20L18 11L11 10z"/>
<path style="fill:#a0afbd; stroke:none;" d="M18 10L19 11L18 10M2.33333 11.6667L2.66667 12.3333L2.33333 11.6667z"/>
<path style="fill:#abc5de; stroke:none;" d="M11 11L12 12L11 11z"/>
<path style="fill:#a0afbd; stroke:none;" d="M13 11L13 19L14 19L13 11z"/>
<path style="fill:#577ea7; stroke:none;" d="M15 11L16 21L18 21L18 17C26.1603 15.6429 20.3193 11.129 15 11z"/>
<path style="fill:#a0afbd; stroke:none;" d="M21 11L22 12L21 11z"/>
<path style="fill:#abc5de; stroke:none;" d="M29.6667 11.3333L30.3333 11.6667L29.6667 11.3333z"/>
<path style="fill:#a0afbd; stroke:none;" d="M15 12L15 16L16 16L15 12M18 12L19 13L18 12M30 12L30 20L31 20L30 12z"/>
<path style="fill:#abc5de; stroke:none;" d="M1 13L1 19L3 19L3 13L1 13z"/>
<path style="fill:#f2f8fb; stroke:none;" d="M18 13L18 15L21 15L21 13L18 13z"/>
<path style="fill:#a0afbd; stroke:none;" d="M21 13L22 14L21 13z"/>
<path style="fill:#abc5de; stroke:none;" d="M23 13L23 16L24 16L23 13M21 14L22 15L21 14M18 15L18 16L21 16L18 15M22 16L23 17L22 16z"/>
<path style="fill:#a0afbd; stroke:none;" d="M15.3333 17.6667L15.6667 18.3333L15.3333 17.6667z"/>
<path style="fill:#abc5de; stroke:none;" d="M18 17L18 18L22 18L18 17z"/>
<path style="fill:#a0afbd; stroke:none;" d="M2 19L9 29L2 19z"/>
<path style="fill:#abc5de; stroke:none;" d="M13 19L14 20L13 19M15 19L16 20L15 19M29.6667 20.3333L30.3333 20.6667L29.6667 20.3333M3 21L4 22L3 21M16.6667 21.3333L17.3333 21.6667L16.6667 21.3333z"/>
<path style="fill:#a0afbd; stroke:none;" d="M29.3333 21.6667L29.6667 22.3333L29.3333 21.6667z"/>
<path style="fill:#abc5de; stroke:none;" d="M4 23L5 24L4 23z"/>
<path style="fill:#a0afbd; stroke:none;" d="M28 23L27 26L28 23z"/>
<path style="fill:#abc5de; stroke:none;" d="M27 24L28 25L27 24M4 25L5 26L4 25M5 26L6 27L5 26z"/>
<path style="fill:#a0afbd; stroke:none;" d="M26 26L27 27L26 26z"/>
<path style="fill:#abc5de; stroke:none;" d="M6 27L7 28L6 27M24 27L25 28L24 27z"/>
<path style="fill:#a0afbd; stroke:none;" d="M25 27L26 28L25 27z"/>
<path style="fill:#abc5de; stroke:none;" d="M7 28L8 29L7 28M9.33333 28.6667L9.66667 29.3333L9.33333 28.6667z"/>
<path style="fill:#a0afbd; stroke:none;" d="M21 29L21 30L25 29L21 29M10 29L11 30L10 29z"/>
<path style="fill:#abc5de; stroke:none;" d="M11.3333 29.6667L11.6667 30.3333L11.3333 29.6667M23 29L24 30L23 29z"/>
<path style="fill:#a0afbd; stroke:none;" d="M12 30L12 31L15 31L12 30z"/>
<path style="fill:#abc5de; stroke:none;" d="M15 30L16 32L17 32L18 30L15 30z"/>
<path style="fill:#a0afbd; stroke:none;" d="M18 30L18 31L21 31L18 30z"/>
</svg>
